<?xml version="1.0" encoding="UTF-8" standalone="no"?>
<svg width="400px" height="400px" viewBox="0 0 550 550" version="1.1" xmlns="http://www.w3.org/2000/svg" xmlns:xlink="http://www.w3.org/1999/xlink" xmlns:sketch="http://www.bohemiancoding.com/sketch/ns">
    <!-- Generator: Sketch 3.4.4 (17249) - http://www.bohemiancoding.com/sketch -->
    <title>hero</title>
    <desc>Created with Sketch.</desc>
    <defs></defs>
    <g id="hero-post-1.0" stroke="none" stroke-width="1" fill="none" fill-rule="evenodd" sketch:type="MSPage">
        <g id="BG" sketch:type="MSLayerGroup" transform="translate(0, 0)">
            <g id="Planets" transform="translate(0, 0.0)" sketch:type="MSShapeGroup">
                <g id="Right" transform="translate(000000, 0)">
                    <g id="Circles" stroke="#C98C81">
                        <ellipse id="Overlay" stroke-width="2" opacity="0.283348881" cx="188.464547" cy="189.004074" rx="188.342258" ry="188.342258"></ellipse>
                        <ellipse id="Overlay" stroke-width="4" opacity="0.22603778" cx="188.464547" cy="189.004074" rx="131.388609" ry="131.388609"></ellipse>
                        <ellipse id="Overlay" stroke-width="6" opacity="0.291511194" cx="188.464547" cy="189.004074" rx="100.793128" ry="100.793128"></ellipse>
                    </g>
                    <path d="M139.805525,180.304172 C139.805525,208.092834 162.320659,230.619882 190.094624,230.619882 C217.868589,230.619882 240.383722,208.092834 240.383722,180.304172 C240.383722,152.51551 217.868589,129.988462 190.094624,129.988462 C162.320659,129.988462 139.805525,152.51551 139.805525,180.304172 Z" id="Planet" fill="#3E8B8A"></path>
                    <path d="M221.839038,197.738452 C221.839038,205.692345 228.283499,212.140216 236.233184,212.140216 C244.18287,212.140216 250.627331,205.692345 250.627331,197.738452 C250.627331,189.78456 244.18287,183.336689 236.233184,183.336689 C228.283499,183.336689 221.839038,189.78456 221.839038,197.738452 Z" id="Planet" fill="#CA8C81"></path>
                    <path d="M70.9596693,176.110421 C70.9596693,188.05528 80.6377203,197.738452 92.5762615,197.738452 C104.514803,197.738452 114.192854,188.05528 114.192854,176.110421 C114.192854,164.165562 104.514803,154.48239 92.5762615,154.48239 C80.6377203,154.48239 70.9596693,164.165562 70.9596693,176.110421 Z" id="Planet" fill="#CA8C81"></path>
                    <path d="M365.12665,180.304172 C365.12665,185.875239 369.640481,190.391459 375.208602,190.391459 C380.776723,190.391459 385.290554,185.875239 385.290554,180.304172 C385.290554,174.733105 380.776723,170.216885 375.208602,170.216885 C369.640481,170.216885 365.12665,174.733105 365.12665,180.304172 Z" id="Planet" fill="#CA8C81"></path>
                    <path d="M253.117653,292.627271 C253.117653,300.099811 259.172109,306.157471 266.640697,306.157471 C274.109285,306.157471 280.163741,300.099811 280.163741,292.627271 C280.163741,285.154731 274.109285,279.097071 266.640697,279.097071 C259.172109,279.097071 253.117653,285.154731 253.117653,292.627271 Z" id="Planet" fill="#79A69F"></path>
                </g>
            </g>
        </g>
    </g>
</svg>