<?xml version="1.0" encoding="UTF-8" standalone="no"?>
<svg width="3000px" height="590px" viewBox="0 0 3000 590" version="1.1" xmlns="http://www.w3.org/2000/svg" xmlns:xlink="http://www.w3.org/1999/xlink" xmlns:sketch="http://www.bohemiancoding.com/sketch/ns">
    <!-- Generator: Sketch 3.4.4 (17249) - http://www.bohemiancoding.com/sketch -->
    <title>hero</title>
    <desc>Created with Sketch.</desc>
    <defs></defs>
    <g id="hero-post-1.0" stroke="none" stroke-width="1" fill="none" fill-rule="evenodd" sketch:type="MSPage">
        <g id="BG" sketch:type="MSLayerGroup" transform="translate(-99.000000, -229.000000)">
            <g id="Rocks" transform="translate(0.000000, 206.500000)" sketch:type="MSShapeGroup">
                <g id="Back" transform="translate(122.000000, 330.000000)" fill="#E34B30">
                    <path d="M232.328125,38.4882812 L310.722656,46.3671875 L328.78125,4.796875 L419.53125,99.4765625 L533.753906,27.6992188 L597.769531,128.125 L670.492188,107.355469 L728.605469,189.203125 L769.152344,177.660156 L801.078125,217.839844 L854.773437,234.183594 L954.414063,234.183594 L1017.49219,222.269531 L1054.57812,227.71875 L1131.52344,207.40625 L1210.14844,217.839844 L1301.86328,189.203125 L1372.29688,207.40625 L1438.05078,193.890625 L1463.49609,207.40625 L1623.39844,207.40625 L1761.63672,217.839844 L1845.71094,217.839844 L1941.91016,189.203125 L1981.80469,165.5625 L2001.18359,177.660156 L2105.87109,165.5625 L2178.97266,140.125 L2247.95312,150.347656 L2300.75391,140.125 L2405.80078,0.6796875 L2575.54297,182.527344 L2660.54297,182.527344 L2689.73047,99.4765625 L2720.39844,217.839844 L2772.35156,234.183594 L2843.42578,81.0742188 L2857.74609,128.125 L2879.02734,4.796875 L2904.24609,165.5625 L2918.56641,81.0742188 L2961.81641,330.445312 L0.08984375,330.445312 L232.328125,38.4882812 Z" id="Mountains-Back"></path>
                </g>
                <g id="Mid" transform="translate(208.000000, 308.000000)" fill="#BA3525">
                    <path d="M0.3984375,210.527626 L128.234375,155.066688 L189.867187,95.5429687 L266.863281,190.410164 L507.181641,124.746376 L569.796875,210.527626 L651.15625,190.410164 L721.826172,279.015907 L803.060547,258.574501 L872.267578,279.015907 L921.265625,279.015907 L1074.98828,279.015907 L1290.15625,279.015907 L1418.99219,271.691414 L1475.5625,250.406258 L1563.60547,271.691414 L1745.13672,246.375008 L1820.26758,286.11747 L2002.30273,233.691688 L2032.02344,210.527626 L2092.98633,233.691688 L2169.1582,210.527626 L2241.08984,95.5429687 L2344.90234,144.292976 L2416.75977,0.269813491 L2501.32031,173.593758 L2548.27734,90.2265625 L2583.96875,233.691688 L2851.93359,430.972664 L86.203125,368.308601 L0.3984375,210.527626 Z" id="Mountains-Mid"></path>
                </g>
                <g id="Front" fill="#991F16">
                    <g id="Seamless" transform="translate(50.000000, 431.500000)">
                        <rect id="Seamless-left" x="0" y="0" width="185" height="180"></rect>
                        <rect id="Seamless-right" x="2982" y="0" width="185" height="180"></rect>
                    </g>
                    <path d="M53.390625,578.96875 L189.097656,422.832031 L306.924152,501.180016 L440.484375,399.066406 L481.019531,422.832031 L541.78125,310.609375 L703.992188,496.109375 L764.367188,461.476562 L852.777344,572.734375 L1316.03516,572.734375 L1355.92188,559.582031 L1372.90625,572.734375 L1571.95312,572.734375 L1600.76367,559.582031 L1673.85937,572.734375 L1940.07422,572.734375 L2097.19531,522.296875 L2182.33594,520.296875 L2305.98438,590.015625 L2388.60938,538.617188 L2461.8125,522.296875 L2496.44531,572.734375 L2625.10547,522.296875 L2702.24609,360.769531 L2749.4196,548.720679 L2783.79297,434.0625 L2812.39453,534.226562 L3010.85156,473.097656 L3045.09375,372.777344 L3186.02344,647.058594 L1531.46094,735.53125 L60.5585938,689.539062 L53.390625,578.96875 Z" id="Mountains-Front"></path>
                    <path d="M665.086346,371.065877 C688.199295,487.094397 528.388728,449.723087 368.491528,483.420136 C143.488374,532.344929 96.0100294,387.994691 96.0100294,387.994691 C59.2193351,294.524631 6.20966351,269.653746 6.20966351,269.653746 C-67.1708294,219.456614 11.740991,220.487879 11.740991,220.487879 C92.9564152,226.193316 135.720407,303.84619 135.720407,303.84619 C207.855347,427.477387 324.923953,391.731351 371.076385,371.065882 C452.637532,332.89678 641.973397,255.037357 665.086346,371.065877 Z M367.843812,414.990047 C369.003053,421.527625 362.276761,428.253916 352.665848,430.046695 C343.216689,431.785556 334.468467,427.728214 333.268788,421.244554 C332.096068,414.531743 338.943675,407.805451 348.379354,406.066591 C357.990267,404.395127 366.617174,408.331154 367.843812,414.990047 Z M305.8514,425.531049 C306.080552,432.24386 298.262418,437.810911 288.584107,437.932227 C278.851878,438.161379 270.979826,432.715644 270.871989,426.110669 C270.871989,419.330459 278.51489,413.830806 288.247119,413.655572 C297.91195,413.466859 305.8514,418.872155 305.8514,425.531049 Z M239.235505,420.664934 C237.254013,427.027278 228.114883,429.925379 218.894877,427.215991 C209.68835,424.425726 203.662995,416.95806 205.523172,410.528319 C207.437267,404.098577 216.630314,401.09264 225.917718,403.977262 C235.110766,406.754047 241.1496,414.167795 239.235505,420.664934 Z M178.577568,394.366348 C174.11584,399.286381 164.612763,397.951906 157.657319,391.239095 C150.540121,384.688037 148.558629,375.360195 153.033837,370.440162 C157.549483,365.520129 167.106478,366.895043 174.11584,373.567416 C181.179119,380.118473 183.335846,389.486754 178.577568,394.366348 Z M134.607303,349.061609 C129.619873,352.539331 121.46475,349.290761 116.423402,342.052247 C111.435971,334.813733 111.435971,326.119429 116.531238,322.641707 C121.586066,319.163986 129.619873,322.304719 134.728619,329.475835 C139.70257,336.835665 139.70257,345.51649 134.607303,349.061609 Z M102.512515,302.193243 C98.6304066,305.778801 91.0414246,304.107338 85.8922397,298.418971 C80.5678208,292.744084 79.5703347,285.155102 83.5063609,281.502146 C87.5097847,277.916588 94.8696144,279.601531 100.207513,285.276418 C105.531932,291.018703 106.569857,298.540287 102.512515,302.193243 Z M55.5902301,267.901289 C49.6861909,265.23234 46.3702237,259.719207 48.2843186,255.661865 C50.036659,251.510166 56.4124822,250.350926 62.3030419,253.127711 C68.2205606,255.783181 71.5904461,261.350232 69.5415557,265.407574 C67.7487767,269.464916 61.386433,270.678074 55.5902301,267.901289 Z" id="Left-arm" transform="translate(321.147976, 357.013583) rotate(128.000000) translate(-321.147976, -357.013583) "></path>
                    <path d="M3156.52895,521.545673 C3181.4308,646.554557 3009.25123,606.290787 2836.97832,642.595916 C2594.5604,695.307385 2543.40733,539.784742 2543.40733,539.784742 C2503.76911,439.080296 2446.6566,412.284458 2446.6566,412.284458 C2367.59662,358.202173 2452.61604,359.313255 2452.61604,359.313255 C2540.11737,365.460281 2586.19121,449.123325 2586.19121,449.123325 C2663.90924,582.323316 2790.03871,543.810612 2839.76324,521.54568 C2916.75821,473.313193 3131.62711,396.53679 3156.52895,521.545673 Z M2836.28047,568.869482 C2837.52944,575.913055 2830.28255,583.159947 2819.92777,585.091483 C2809.74726,586.964928 2800.32195,582.593556 2799.02942,575.608075 C2797.76593,568.375706 2805.14353,561.128814 2815.30951,559.255369 C2825.66429,557.454538 2834.9589,561.695204 2836.28047,568.869482 Z M2769.48998,580.226335 C2769.73687,587.458704 2761.31363,593.456633 2750.88624,593.587339 C2740.40075,593.834227 2731.91942,587.967003 2731.80324,580.850817 C2731.80324,573.545833 2740.03768,567.620519 2750.52316,567.431722 C2760.93603,567.228402 2769.48998,573.052057 2769.48998,580.226335 Z M2697.71816,574.983594 C2695.5833,581.838369 2685.73682,584.960778 2675.80321,582.041689 C2665.88411,579.035463 2659.39241,570.989815 2661.39656,564.062426 C2663.4588,557.135036 2673.36337,553.896445 2683.3696,557.00433 C2693.27417,559.996033 2699.7804,567.98359 2697.71816,574.983594 Z M2632.36542,546.649553 C2627.55836,551.950386 2617.31977,550.512625 2609.82599,543.280256 C2602.15794,536.222161 2600.02308,526.172363 2604.84466,520.87153 C2609.70981,515.570697 2620.00649,517.052026 2627.55836,524.240826 C2635.16833,531.298922 2637.49198,541.392288 2632.36542,546.649553 Z M2584.99195,497.838322 C2579.6185,501.585212 2570.83219,498.08521 2565.40065,490.28645 C2560.02721,482.487691 2560.02721,473.120466 2565.51684,469.373575 C2570.9629,465.626685 2579.6185,469.010505 2585.12266,476.73665 C2590.48158,484.666115 2590.48158,494.018818 2584.99195,497.838322 Z M2550.41309,447.342443 C2546.23052,451.205515 2538.05416,449.404685 2532.50644,443.27605 C2526.76993,437.161939 2525.69524,428.985586 2529.9359,425.049899 C2534.24918,421.186826 2542.17865,423.00218 2547.92969,429.116291 C2553.66621,435.303017 2554.78446,443.406756 2550.41309,447.342443 Z M2514.89025,407.70964 C2512.95871,412.081012 2506.10394,413.388067 2499.85912,410.396364 C2493.49812,407.520843 2489.92551,401.581006 2491.98775,397.209634 C2493.87572,392.736603 2500.74502,391.487639 2507.09149,394.479342 C2513.46701,397.34034 2517.09772,403.338269 2514.89025,407.70964 Z" id="Path" transform="translate(2785.970479, 506.405762) scale(1, -1) rotate(-103.000000) translate(-2785.970479, -506.405762) "></path>
                </g>
            </g>
            <g id="Rocket" transform="translate(2095.792133, 520.571711)" fill="#991F16" sketch:type="MSShapeGroup">
                <path d="M44.0003013,0.0880283831 C44.0003013,0.0880283831 45.102029,23.3228374 45.102029,31.0790263 C48.9980517,39.1382267 59.9264928,79.7139811 59.9264928,122.1498 C59.9264928,164.585618 49.7972525,181.633082 49.7972525,181.633082 L38.5386646,181.633082 C38.5386646,181.633082 28.7602457,164.13207 28.7602457,122.1498 C28.7602457,80.1675292 37.1295644,49.7255376 43.1103263,31.0790263 C43.1103263,23.1987901 44.0003013,0.0880283831 44.0003013,0.0880283831 Z" id="Path-24"></path>
                <path d="M23.4158729,121.146437 L21.3671536,155.45974 L44.5220103,153.656531 C44.5220103,153.656531 44.2823147,157.794026 44.2823147,162.852186 C14.8566067,157.794026 11.186227,193.492524 4.3468254,212.131928 L0.287505545,213.236079 L19.4147003,121.269193 L23.4158729,121.146437 Z" id="Path-25"></path>
                <path d="M67.0805353,121.146437 L65.031816,155.45974 L88.1866726,153.656531 C88.1866726,153.656531 87.946977,157.794026 87.946977,162.852186 C58.5212691,157.794026 54.8508893,193.492524 48.0114877,212.131928 L43.9521679,213.236079 L63.0793626,121.269193 L67.0805353,121.146437 Z" id="Path-25" transform="translate(66.069420, 167.191258) scale(-1, 1) translate(-66.069420, -167.191258) "></path>
            </g>
        </g>
    </g>
</svg>